<svg xmlns="http://www.w3.org/2000/svg" width="1200" height="900" viewBox="0 0 1200 900">

  <!-- Gray lines — varied angles, very subtle -->
  <line x1="0" y1="80"  x2="1200" y2="720" stroke="#c8d0d8" stroke-width="0.9" opacity="0.6"/>
  <line x1="0" y1="600" x2="1200" y2="180" stroke="#c8d0d8" stroke-width="0.9" opacity="0.6"/>
  <line x1="280" y1="0" x2="920"  y2="900" stroke="#c8d0d8" stroke-width="0.9" opacity="0.6"/>
  <line x1="0" y1="320" x2="750"  y2="0"   stroke="#c8d0d8" stroke-width="0.9" opacity="0.6"/>
  <line x1="420" y1="900" x2="1100" y2="120" stroke="#c8d0d8" stroke-width="0.9" opacity="0.6"/>
  <line x1="0" y1="760" x2="1200" y2="440" stroke="#c8d0d8" stroke-width="0.9" opacity="0.6"/>
  <line x1="90" y1="0"  x2="1200" y2="580" stroke="#c8d0d8" stroke-width="0.9" opacity="0.6"/>
  <line x1="0" y1="870" x2="870"  y2="0"   stroke="#c8d0d8" stroke-width="0.9" opacity="0.6"/>
  <line x1="680" y1="0" x2="1200" y2="820" stroke="#c8d0d8" stroke-width="0.9" opacity="0.6"/>
  <line x1="0" y1="480" x2="1200" y2="340" stroke="#c8d0d8" stroke-width="0.9" opacity="0.6"/>
  <line x1="180" y1="900" x2="1200" y2="160" stroke="#c8d0d8" stroke-width="0.9" opacity="0.6"/>
  <line x1="0" y1="220" x2="580"  y2="900" stroke="#c8d0d8" stroke-width="0.9" opacity="0.6"/>
  <line x1="820" y1="900" x2="1200" y2="240" stroke="#c8d0d8" stroke-width="0.9" opacity="0.6"/>
  <line x1="50" y1="0"  x2="1200" y2="680" stroke="#c8d0d8" stroke-width="0.9" opacity="0.6"/>

  <!-- Aqua accent lines -->
  <line x1="0" y1="440" x2="1200" y2="650" stroke="#4dbdc8" stroke-width="1.6" opacity="0.6"/>
  <line x1="760" y1="0" x2="240"  y2="900" stroke="#4dbdc8" stroke-width="1.6" opacity="0.6"/>

</svg>
